<svg width="174" height="57" viewBox="0 0 174 57" fill="none" xmlns="http://www.w3.org/2000/svg">
<path d="M33.9002 51.3595C47.2041 51.3595 57.9891 40.1201 57.9891 26.2555C57.9891 12.391 47.2041 1.15155 33.9002 1.15155C20.5962 1.15155 9.81128 12.391 9.81128 26.2555C9.81128 40.1201 20.5962 51.3595 33.9002 51.3595Z" fill="#FEFEFE"/>
<path d="M42.2986 56.089C54.4712 56.089 64.3391 45.9603 64.3391 33.4659C64.3391 20.9714 54.4712 10.8427 42.2986 10.8427C30.1259 10.8427 20.2581 20.9714 20.2581 33.4659C20.2581 45.9603 30.1259 56.089 42.2986 56.089Z" fill="#FEFEFE"/>
<path d="M56.7965 50.4992C60.8932 45.9928 62.2588 40.7262 62.1496 34.9589C61.984 36.885 61.6458 38.7923 61.1391 40.6579C59.9009 44.9549 57.7706 48.6784 54.17 51.4324C50.8001 54.0529 46.542 55.2578 42.2985 54.7917C36.7861 54.2773 32.1887 51.7647 28.2421 48.023C22.4839 42.5606 19.1382 35.8101 17.9274 27.9944C17.1263 22.7597 17.5269 17.6387 19.6253 12.7454C21.6919 7.90665 25.0285 4.29696 30.0356 2.44887C32.51 1.55125 35.1595 1.24266 37.7739 1.54758C37.9287 1.54758 38.088 1.54758 38.4112 1.54758C37.7957 1.29563 37.1411 1.1524 36.4766 1.12425C31.8564 0.578018 27.5502 1.44744 23.6629 4.05115C19.7755 6.65487 17.2902 10.4239 15.8199 14.8438C14.5469 18.7959 14.1706 22.9819 14.7183 27.0977C15.5753 34.5708 18.8264 41.5662 23.9861 47.0397C27.8006 51.1365 32.3571 54.077 37.8695 55.3834C39.7418 55.8219 41.6661 55.9966 43.5867 55.9024C43.8488 55.8723 44.1142 55.8987 44.3651 55.9798C43.333 56.2199 42.2791 56.3541 41.2197 56.3803C35.9647 56.7014 30.6909 56.2629 25.561 55.0785C20.4173 53.8813 15.615 51.9194 11.3726 48.7057C6.36549 44.9003 3.11085 39.9114 1.31283 33.921C0.302873 30.6446 -0.129933 27.2176 0.0337304 23.7929C0.311399 18.6629 1.92279 13.9516 5.19109 9.91406C8.24195 6.18657 12.331 3.44895 16.9397 2.0483C20.2368 1.00138 23.648 0.354908 27.0996 0.122824C29.1493 -0.0509709 31.2106 -0.0403068 33.2584 0.154687C34.6351 0.290504 36.0029 0.504794 37.3551 0.796512C38.821 1.11189 40.2678 1.51007 41.6886 1.98912C45.3909 3.24916 48.7547 5.34217 51.5208 8.10694C51.5933 8.19967 51.6881 8.27252 51.7963 8.31869C51.9046 8.36485 52.0228 8.38284 52.1399 8.37095C52.2778 8.36185 52.4162 8.36185 52.5541 8.37095H174L172.439 10.9747C167.841 18.6583 163.241 26.3405 158.637 34.0212C155.451 39.3287 152.264 44.6318 149.078 49.953C149 50.0949 148.879 50.2089 148.733 50.2791C148.587 50.3493 148.423 50.3721 148.263 50.3444C137.603 50.3444 126.94 50.3444 116.277 50.3444C105.777 50.3444 95.2741 50.3444 84.7682 50.3444C76.4473 50.3444 68.1248 50.3353 59.8008 50.3171C58.7963 50.3084 57.7925 50.3692 56.7965 50.4992ZM25.5519 10.9246C25.6475 10.9474 25.6839 10.9246 25.6794 10.8108C25.7902 10.7744 25.8921 10.7151 25.9783 10.6367C26.0646 10.5582 26.1334 10.4624 26.1801 10.3556C26.3667 10.3146 26.4623 10.1508 26.5943 10.037C28.8517 7.99509 31.7895 6.86865 34.8334 6.87791C38.0218 6.90992 41.1277 7.89605 43.7506 9.70922C48.2343 12.6452 51.3433 16.7329 53.4326 21.6126C55.8087 27.1568 56.619 32.8923 55.176 38.8326C54.4295 41.8505 53.1003 44.5862 50.8152 46.7348C47.0144 50.3126 42.558 51.0591 37.6465 49.5524C37.3824 49.475 37.1275 49.2884 36.7861 49.4113L36.9682 49.5023C37.2778 49.6343 37.5827 49.78 37.8786 49.8984C41.6795 51.3595 45.4804 51.5462 49.2221 49.7572C52.8044 48.0503 55.1032 45.137 56.5826 41.5637C58.4033 37.1575 58.6856 32.5737 57.889 27.9079C56.6645 20.8023 53.4645 14.7664 47.8474 10.1553C44.0055 7.00537 39.6539 5.14817 34.542 5.71261C32.9031 5.87874 31.3129 6.36627 29.8625 7.14732C28.4121 7.92837 27.1299 8.98764 26.0891 10.2646C25.8967 10.3953 25.7502 10.5832 25.6703 10.8017L25.5428 10.9109L25.5064 10.9519C25.5064 10.9519 25.5064 10.9747 25.5064 10.9838L25.5519 10.9246ZM39.6402 22.5321L39.5264 22.4365C39.795 18.5036 40.2729 14.5798 40.4732 10.6424L40.3048 10.6151C39.3944 14.5237 38.484 18.4353 37.5736 22.35H37.4735C36.3932 17.8678 35.3098 13.3917 34.2234 8.92174L34.0413 8.95815C34.5299 13.1338 35.0154 17.3079 35.4979 21.4806L35.3068 21.517L29.3209 10.6242C29.2741 10.5652 29.2151 10.5171 29.148 10.4831C29.148 10.4831 29.107 10.4831 29.0888 10.4831C29.0767 10.4939 29.066 10.5061 29.0569 10.5195L34.2052 23.3377L34.0777 23.3742L24.3548 14.7573L24.2683 14.8484L32.653 24.6851L32.5528 24.7989L22.4566 20.9889L22.3974 21.1392L33.0444 27.4482L22.1198 29.3281V29.41L32.9489 29.9017L24.6643 36.3791L24.728 36.5111L34.4555 31.8635C32.7668 35.7008 31.1372 39.3743 29.5121 43.0431L29.6714 43.1387L35.639 34.2397L35.762 34.2943C35.3917 38.4881 35.0245 42.685 34.6604 46.885L34.8243 46.9168C35.7802 42.7655 36.7406 38.6141 37.7375 34.3034L41.0422 47.9228C41.1242 46.9874 41.0752 46.0452 40.8965 45.1234C40.5415 42.0189 40.1773 38.91 39.8223 35.8055C39.8223 35.6644 39.5947 35.4778 39.7904 35.3867C39.9862 35.2957 40.0681 35.5506 40.1455 35.6872C40.8374 36.9344 41.5111 38.1816 42.2075 39.4289L46.0858 46.4844L46.2405 46.4207L41.1059 33.6069L41.247 33.5113L50.3509 41.5364L50.4875 41.3953L42.6536 32.2004L42.7811 32.0502L52.3675 35.6462L52.4539 35.4732L42.203 29.3827L52.463 27.562V27.4117L42.2894 26.911L50.4283 20.5383L50.36 20.4291L40.801 24.981C42.4806 21.171 44.0875 17.5249 45.6989 13.8788L45.5623 13.806L44.2695 15.7087L39.6402 22.5321ZM70.3886 27.9944C73.493 27.8715 76.5474 28.1537 79.5881 27.8169C82.1645 27.5301 83.8988 25.9961 84.3676 23.5881C84.5141 23.0491 84.4601 22.4753 84.2157 21.973C83.9713 21.4708 83.553 21.0743 83.0385 20.8569C82.8883 20.7841 82.7335 20.7249 82.5833 20.6658C82.6197 20.4928 82.7335 20.4928 82.82 20.4564C83.3917 20.2274 83.9064 19.8761 84.3279 19.4271C84.7493 18.9781 85.0674 18.4422 85.2598 17.8572C85.9244 15.8589 84.9594 14.2839 82.8609 14.2156C80.0524 14.111 77.2393 14.1747 74.4262 14.1474C74.0939 14.1474 74.0347 14.3386 73.971 14.5707L70.3886 27.9944ZM110.314 30.2385C108.78 30.2385 107.492 30.2385 106.217 30.2385C105.921 30.2385 105.762 30.2931 105.689 30.6209C104.539 34.9725 103.372 39.3196 102.188 43.6622C102.088 44.04 102.189 44.1174 102.571 44.1174C103.7 44.0901 104.829 44.0901 105.958 44.1174C106.331 44.1174 106.467 43.9945 106.554 43.6622C106.95 42.11 107.378 40.5714 107.778 39.0238C107.865 38.6778 107.983 38.4957 108.397 38.5048C108.812 38.5139 108.889 38.6733 108.966 39.0101C109.335 40.5669 109.74 42.1145 110.104 43.6758C110.182 44.0081 110.291 44.131 110.641 44.131C112.107 44.131 113.573 44.1083 115.039 44.131C115.521 44.131 115.494 43.9808 115.362 43.6212C114.752 41.8687 114.174 40.1071 113.541 38.3592C113.404 37.9768 113.491 37.8721 113.846 37.7492C114.7 37.4793 115.468 36.9899 116.073 36.3301C116.679 35.6703 117.101 34.8632 117.296 33.9893C117.82 31.8909 116.841 30.5662 114.702 30.3477C113.154 30.1884 111.611 30.284 110.314 30.2385ZM141.267 27.9625C141.203 27.7622 141.158 27.5938 141.103 27.4345C140.225 24.8763 139.355 22.3136 138.463 19.7599C138.399 19.6426 138.384 19.5048 138.42 19.3762C138.457 19.2477 138.542 19.1386 138.659 19.0726C139.428 18.4854 140.174 17.8618 140.935 17.2518L144.69 14.202C144.615 14.1702 144.537 14.1458 144.458 14.1292C142.737 14.1292 141.012 14.1292 139.291 14.1292C139.174 14.1371 139.06 14.1686 138.955 14.2218C138.85 14.275 138.757 14.3487 138.681 14.4387L133.884 18.6993C133.733 18.8313 133.624 19.0498 133.324 19.0407C133.351 18.9315 133.365 18.8404 133.392 18.7494C133.756 17.3838 134.116 16.0182 134.503 14.6526C134.607 14.2748 134.562 14.1337 134.125 14.1474C133.055 14.1747 131.986 14.1838 130.916 14.1474C130.429 14.1246 130.247 14.2748 130.119 14.7482C129.318 17.8481 128.476 20.9298 127.648 24.0205C127.297 25.3315 126.96 26.6425 126.601 27.9989C127.939 27.9989 129.204 27.9989 130.47 27.9989C130.861 27.9989 130.97 27.8396 131.052 27.5437C131.262 26.7016 131.508 25.8641 131.717 25.022C131.743 24.8264 131.836 24.6459 131.981 24.5122C132.846 23.8248 133.693 23.1193 134.598 22.3818C135.022 24.1207 135.427 25.8049 135.841 27.48C135.9 27.7213 135.864 28.0263 136.296 28.0172C137.917 27.9534 139.565 27.9671 141.249 27.9671L141.267 27.9625ZM122.558 40.9356C122.759 40.1845 122.973 39.4835 123.123 38.7734C123.205 38.3819 123.369 38.2727 123.756 38.2772C125.658 38.2772 127.561 38.2772 129.459 38.2772C129.801 38.2772 129.951 38.1862 130.024 37.8494C130.178 37.1757 130.356 36.4838 130.561 35.8465C130.688 35.4459 130.602 35.3458 130.188 35.3503C128.681 35.3503 127.174 35.3503 125.672 35.3503C125.158 35.3503 124.379 35.5142 124.193 35.2638C123.929 34.8997 124.397 34.2852 124.466 33.7663C124.525 33.3111 124.734 33.2018 125.171 33.2064C127.211 33.2064 129.268 33.2064 131.289 33.2064C131.521 33.2064 131.772 33.2701 131.854 32.9287C132.077 32.0183 132.309 31.1443 132.568 30.1975C128.808 30.1975 125.103 30.1975 121.402 30.1975C121.097 30.1975 121.034 30.3568 120.979 30.5662C119.829 34.9604 118.662 39.3378 117.478 43.6986C117.392 44.0127 117.406 44.1128 117.765 44.1128C121.407 44.1128 125.048 44.1128 128.69 44.1128C128.899 44.1128 129.068 44.1128 129.145 43.8443C129.382 42.8884 129.646 41.937 129.914 40.931L122.558 40.9356ZM133.938 39.2286C133.388 39.2286 132.828 39.2559 132.277 39.2286C131.904 39.2286 131.776 39.3743 131.772 39.6838C131.74 40.2189 131.74 40.7555 131.772 41.2906C131.786 41.9424 132.025 42.5694 132.446 43.0666C132.868 43.5637 133.448 43.901 134.089 44.0218C135.549 44.4054 137.073 44.4799 138.563 44.2403C141.258 43.8352 143.302 42.5105 144.248 39.8431C144.927 37.9358 144.248 36.4974 142.391 35.7099C141.937 35.5184 141.472 35.3542 140.998 35.2183C140.143 34.9725 139.273 34.7859 138.431 34.5082C137.757 34.2897 137.63 33.7981 138.076 33.2792C138.681 32.5645 139.492 32.5463 140.311 32.733C141.008 32.8923 141.221 33.4567 141.221 34.0986C141.221 34.3671 141.303 34.4399 141.558 34.4354C142.687 34.4354 143.834 34.4354 144.945 34.4354C145.168 34.4354 145.305 34.4035 145.332 34.1304C145.55 32.0365 144.959 30.6846 142.851 30.2248C141.549 29.9558 140.209 29.925 138.895 30.1338C136.751 30.4479 134.981 31.3719 134.002 33.4294C133.142 35.2502 133.674 36.7296 135.454 37.6354C135.914 37.8629 136.392 38.0517 136.883 38.1999C137.71 38.3866 138.522 38.6315 139.314 38.9327C139.481 38.9891 139.631 39.0857 139.751 39.2141C139.871 39.3425 139.957 39.4987 140.002 39.6686C140.047 39.8385 140.05 40.0169 140.009 40.188C139.968 40.359 139.886 40.5173 139.769 40.6488C139.449 41.044 139.018 41.3351 138.532 41.4851C138.046 41.635 137.526 41.637 137.038 41.4909C136.251 41.2542 135.937 40.7353 135.946 39.5654C135.946 39.2923 135.887 39.2195 135.632 39.2286C135.063 39.2377 134.507 39.2331 133.952 39.2286H133.938ZM96.8263 27.9671C97.6821 27.9671 98.4104 27.9671 99.1387 27.9671C99.867 27.9671 100.636 28.1719 101.187 27.8897C101.738 27.6075 101.934 26.729 102.298 26.1235C102.342 26.0579 102.381 25.9895 102.416 25.9187C102.443 25.8449 102.494 25.7824 102.561 25.7411C102.628 25.6998 102.707 25.6822 102.785 25.6911C104.19 25.6911 105.596 25.6911 107.004 25.6911C107.259 25.6911 107.346 25.7821 107.346 26.0371C107.346 26.5514 107.396 27.0658 107.382 27.5802C107.382 27.8988 107.478 27.9807 107.787 27.9762C109.035 27.9762 110.282 27.9534 111.529 27.9762C111.875 27.9762 111.925 27.8487 111.889 27.562C111.807 26.9156 111.729 26.2647 111.661 25.6183C111.265 21.9403 110.86 18.2623 110.491 14.5798C110.446 14.161 110.286 14.1246 109.945 14.1246C108.698 14.1246 107.451 14.1474 106.203 14.1246C106.049 14.1126 105.894 14.1474 105.759 14.2245C105.624 14.3016 105.516 14.4175 105.448 14.557C104.027 16.792 102.589 19.018 101.155 21.2439C99.7214 23.4698 98.3148 25.6592 96.8263 27.9671ZM125.117 19.0453C125.649 19.0453 126.186 19.0453 126.719 19.0453C126.987 19.0453 127.083 18.9724 127.129 18.6902C127.222 18.1733 127.213 17.643 127.101 17.1297C126.989 16.6164 126.777 16.1303 126.477 15.6993C126.176 15.2682 125.794 14.9008 125.351 14.6181C124.908 14.3354 124.414 14.1429 123.897 14.0518C123.509 13.9746 123.117 13.9244 122.722 13.9016C119.827 13.7422 117.26 14.4979 115.307 16.7511C113.634 18.6885 112.733 21.1743 112.776 23.7338C112.734 24.7789 113.085 25.802 113.759 26.6021C114.432 27.4022 115.381 27.9215 116.418 28.0581C117.356 28.2141 118.31 28.2569 119.258 28.1856C122.795 27.958 125.103 25.7048 126.182 22.655C126.282 22.3636 126.214 22.2771 125.904 22.2817C124.994 22.2817 124.042 22.2817 123.114 22.2544C122.923 22.2268 122.728 22.2656 122.563 22.3641C122.397 22.4627 122.27 22.6152 122.203 22.7961C121.716 23.7065 121.097 24.4848 120.05 24.808C118.23 25.3725 116.996 24.5395 117.151 22.7779C117.243 21.4732 117.614 20.2035 118.239 19.0544C118.484 18.5763 118.832 18.159 119.259 17.8329C119.686 17.5069 120.18 17.2803 120.706 17.1699C121.757 16.9468 122.85 17.3155 122.982 18.144C123.15 19.1226 123.692 19.1135 124.402 19.0544C124.639 19.0271 124.88 19.0453 125.117 19.0453ZM104.824 30.2385C103.568 30.2385 102.443 30.3113 101.328 30.2385C100.905 30.185 100.476 30.2513 100.089 30.43C99.7015 30.6086 99.3724 30.8924 99.1387 31.249C98.1737 32.4963 97.0858 33.6479 96.0161 34.8906C95.5609 33.4567 95.1057 32.0957 94.6505 30.721C94.6404 30.651 94.6167 30.5837 94.5806 30.5229C94.5445 30.4621 94.4967 30.409 94.44 30.3667C94.3834 30.3244 94.3189 30.2938 94.2503 30.2764C94.1818 30.2591 94.1105 30.2555 94.0405 30.2658C92.7887 30.2931 91.5415 30.3022 90.2943 30.2658C89.7571 30.2658 89.7207 30.3842 89.9119 30.8485C90.8678 33.17 91.7919 35.5005 92.7341 37.8266C92.8796 38.1486 92.9038 38.5123 92.8024 38.8508C92.3472 40.4485 91.9466 42.0371 91.5005 43.6576C91.3867 44.0764 91.5005 44.1675 91.9011 44.1584C93.03 44.1341 94.1589 44.1341 95.2878 44.1584C95.6474 44.1584 95.7429 44.0172 95.8385 43.7032C96.2664 42.0599 96.7171 40.4212 97.1495 38.778C97.2089 38.5078 97.3412 38.2591 97.5319 38.0587C98.8914 36.6203 100.248 35.1758 101.601 33.7253L104.824 30.2385ZM89.566 33.7207C89.088 32.5828 88.6556 31.5085 88.2004 30.4388C88.1093 30.2203 87.9364 30.2385 87.7452 30.2385C84.0217 30.2385 80.2967 30.2385 76.5701 30.2385C76.3107 30.2385 76.1787 30.3113 76.115 30.5708C75.8874 31.4812 75.6598 32.3688 75.4003 33.261C75.3002 33.6206 75.3639 33.7435 75.769 33.7162C76.8569 33.6889 77.9494 33.7162 79.0373 33.7162C79.5426 33.7162 79.6245 33.8163 79.4925 34.3125C78.6504 37.3714 77.831 40.4531 77.0117 43.5165C76.8888 43.9717 76.8979 44.1492 77.4669 44.1265C78.5366 44.0901 79.6063 44.0946 80.6532 44.1265C81.072 44.1265 81.2268 44.0036 81.3315 43.6076C82.1463 40.494 83.0021 37.3896 83.8077 34.2715C83.9261 33.8163 84.1218 33.7025 84.5679 33.7071C86.2066 33.7344 87.8453 33.7207 89.566 33.7207ZM90.399 24.5167C90.3649 24.364 90.3808 24.2044 90.4445 24.0615C91.282 20.9525 92.1014 17.839 92.9617 14.7391C93.1119 14.1883 93.0027 14.0745 92.4564 14.0973C91.4277 14.1383 90.3944 14.1383 89.3657 14.0973C88.8877 14.0745 88.7238 14.2612 88.6146 14.6845C87.7952 17.798 86.9531 20.907 86.1247 24.0205C85.7787 25.3133 85.4419 26.606 85.0868 27.9489H85.7423C88.3597 27.9489 90.9816 27.8578 93.5899 27.9898C94.9327 28.0536 95.7794 27.6985 96.321 26.4604C96.6124 25.7867 97.1495 25.2359 97.4772 24.4985L90.399 24.5167ZM50.6468 41.6502C50.6471 41.6109 50.6328 41.573 50.6068 41.5436C50.5807 41.5141 50.5447 41.4954 50.5057 41.4909C50.4374 41.4909 50.3874 41.5182 50.4238 41.5774C50.4719 41.6384 50.5286 41.6921 50.5922 41.7367L50.6468 41.6502ZM25.3835 11.266V11.2387H25.3562L25.3835 11.266Z" fill="#242021"/>
<path d="M39.6404 22.5321L44.2697 15.7042L45.5625 13.8014L45.699 13.8743C44.0876 17.5158 42.4808 21.1574 40.8011 24.9765L50.3602 20.4245L50.4285 20.5338L42.2896 26.9065L52.4632 27.4072V27.5574L42.2031 29.3782L52.4541 35.4687L52.3676 35.6417L42.7812 32.0502L42.6538 32.2004L50.4786 41.3953L50.342 41.5364L41.2381 33.5114L41.097 33.607L46.2316 46.4025L46.0768 46.4662L42.1986 39.4107C41.5112 38.1635 40.833 36.9162 40.1366 35.669C40.0592 35.5324 40.0091 35.2593 39.7815 35.3686C39.5539 35.4778 39.7815 35.6462 39.8134 35.7873C40.1684 38.8918 40.5326 42.0007 40.8876 45.1052C41.0663 46.027 41.1153 46.9692 41.0333 47.9046L37.7377 34.2852C36.7408 38.5959 35.7803 42.7473 34.8244 46.8986L34.6606 46.8668C35.0308 42.676 35.398 38.4851 35.7621 34.2943L35.6392 34.2397L29.6716 43.1387L29.5123 43.0431C31.1374 39.3743 32.767 35.7009 34.4557 31.8636L24.7282 36.5111L24.6645 36.3791L32.9627 29.9017L22.1336 29.4101V29.3281L33.0583 27.4482L22.3976 21.1392L22.4568 20.989L32.553 24.7989L32.6532 24.6851L24.2685 14.8484L24.355 14.7573L34.0779 23.3742L34.2054 23.3378L29.0571 10.524C29.0662 10.5107 29.0769 10.4984 29.089 10.4876C29.089 10.4876 29.1345 10.4876 29.1482 10.4876C29.2153 10.5217 29.2743 10.5698 29.3211 10.6287L35.316 21.517L35.5072 21.4806C35.0156 17.308 34.527 13.1338 34.0415 8.95817L34.2236 8.92175C35.3069 13.3918 36.3918 17.8618 37.4782 22.3318H37.5784C38.4887 18.4201 39.3991 14.5085 40.3095 10.5969L40.478 10.6242C40.2777 14.5616 39.7997 18.4854 39.5311 22.4183C39.5033 22.4575 39.4884 22.5044 39.4884 22.5526C39.4884 22.6007 39.5033 22.6476 39.5311 22.6868L39.6404 22.5321ZM40.2003 29.9654C38.9713 30.9486 37.9835 30.9122 37.0139 29.9017C35.4708 28.3039 35.6984 26.1054 37.5283 24.9537C37.0736 24.8707 36.6042 24.946 36.1983 25.1672C35.7924 25.3884 35.4746 25.742 35.2978 26.1691C34.4375 27.9307 35.3388 30.5344 37.1186 31.3902C37.4087 31.5456 37.731 31.6315 38.06 31.6412C38.389 31.6509 38.7158 31.584 39.0146 31.4459C39.3133 31.3078 39.5759 31.1021 39.7817 30.8452C39.9875 30.5883 40.1308 30.2871 40.2003 29.9654ZM42.672 32.0912L42.631 32.0138C42.631 32.0138 42.5901 32.0411 42.5946 32.0547C42.6029 32.0822 42.6152 32.1082 42.631 32.1321L42.672 32.0912Z" fill="#FEFEFE"/>
<path d="M70.3889 27.9944L73.9849 14.5661C74.0441 14.334 74.1032 14.1382 74.4401 14.1428C77.2532 14.1701 80.0663 14.1064 82.8748 14.2111C84.9733 14.293 85.9383 15.868 85.2737 17.8526C85.0807 18.4355 84.7628 18.9693 84.3422 19.4166C83.9215 19.864 83.4084 20.2141 82.8384 20.4427C82.7519 20.4791 82.6381 20.4791 82.6017 20.6521C82.7428 20.7112 82.8976 20.7704 83.0569 20.8432C83.5715 21.0606 83.9897 21.4571 84.2342 21.9593C84.4786 22.4616 84.5326 23.0354 84.3861 23.5744C83.9309 25.9596 82.1829 27.5164 79.6065 27.8032C76.5476 28.1537 73.4933 27.8714 70.3889 27.9944ZM77.8905 22.227H76.6159C76.4202 22.227 76.2791 22.2635 76.2199 22.491C76.0378 23.2148 75.833 23.9386 75.6372 24.6623C75.5872 24.8535 75.6372 24.9628 75.8648 24.9582C76.7928 25.01 77.7235 24.9795 78.6461 24.8672C78.9928 24.8103 79.314 24.6491 79.5669 24.4052C79.8198 24.1612 79.9924 23.846 80.0617 23.5016C80.1107 23.381 80.1317 23.2509 80.1231 23.1211C80.1145 22.9913 80.0765 22.8651 80.0121 22.752C79.9477 22.639 79.8585 22.542 79.7512 22.4684C79.6439 22.3948 79.5213 22.3465 79.3926 22.3272C78.8984 22.2286 78.3934 22.1949 77.8905 22.227ZM77.021 19.5186C77.8222 19.5186 78.5733 19.5596 79.3198 19.5186C79.6891 19.5207 80.0485 19.399 80.3406 19.173C80.6327 18.9469 80.8406 18.6295 80.9312 18.2714C81.1406 17.5522 80.8583 17.0833 80.1164 17.0287C79.3744 16.9741 78.6962 17.0287 77.9861 16.9968C77.9439 16.9891 77.9006 16.9902 77.8589 17.0003C77.8172 17.0104 77.7782 17.0292 77.7442 17.0554C77.7103 17.0816 77.6823 17.1146 77.662 17.1524C77.6417 17.1901 77.6296 17.2318 77.6265 17.2745C77.4444 18.0074 77.235 18.7402 77.021 19.5186Z" fill="#FEFEFE"/>
<path d="M26.1028 10.2964C28.2081 7.7192 31.2497 6.0822 34.5603 5.74444C39.663 5.17545 44.0238 7.0372 47.8656 10.1871C53.4827 14.7892 56.6828 20.825 57.9072 27.9397C58.7038 32.5918 58.4125 37.1756 56.6008 41.5956C55.1214 45.1916 52.8227 48.1049 49.2403 49.7891C45.4986 51.578 41.6977 51.3914 37.8969 49.9302C37.5828 49.8118 37.2778 49.6662 36.9865 49.5342L36.8044 49.4431C37.1458 49.3202 37.4007 49.5069 37.6647 49.5842C42.5763 51.0909 47.0326 50.3444 50.8335 46.7666C53.1095 44.6181 54.4478 41.8823 55.1943 38.8644C56.6554 32.9469 55.827 27.1887 53.4509 21.6444C51.3433 16.7556 48.2434 12.668 43.7507 9.73195C41.1277 7.91878 38.0219 6.93265 34.8334 6.90064C31.7896 6.89138 28.8518 8.01782 26.5944 10.0597C26.4624 10.1735 26.3668 10.3374 26.1802 10.3783L26.1028 10.2964Z" fill="#F18F1E"/>
<path d="M110.314 30.2385C111.611 30.284 113.154 30.1884 114.697 30.3432C116.846 30.5617 117.815 31.8863 117.292 33.9847C117.096 34.8586 116.674 35.6658 116.069 36.3256C115.463 36.9854 114.695 37.4747 113.841 37.7447C113.486 37.8676 113.386 37.9722 113.536 38.3546C114.16 40.1026 114.738 41.8642 115.357 43.6167C115.485 43.9763 115.516 44.1356 115.034 44.1265C113.568 44.0992 112.103 44.1265 110.637 44.1265C110.286 44.1265 110.182 44.0127 110.1 43.6713C109.736 42.11 109.33 40.5623 108.962 39.0055C108.884 38.6687 108.789 38.5094 108.393 38.5003C107.997 38.4912 107.86 38.6732 107.774 39.0192C107.373 40.5669 106.945 42.1054 106.549 43.6576C106.463 43.999 106.326 44.1128 105.953 44.1128C104.824 44.0855 103.695 44.0855 102.566 44.1128C102.184 44.1128 102.084 44.0218 102.184 43.6576C103.358 39.3151 104.525 34.968 105.684 30.6163C105.771 30.2886 105.916 30.2294 106.212 30.2339C107.491 30.2476 108.784 30.2385 110.314 30.2385ZM110.746 33.0835C110.291 33.0835 109.986 33.0835 109.672 33.0835C109.467 33.0835 109.339 33.129 109.285 33.3475C109.103 34.0758 108.902 34.7995 108.707 35.5233C108.661 35.6963 108.648 35.8374 108.898 35.8328C109.863 35.8328 110.842 35.9148 111.779 35.5916C112.085 35.4751 112.352 35.2735 112.547 35.0106C112.742 34.7476 112.858 34.4343 112.881 34.1076C112.897 34.0039 112.893 33.898 112.868 33.796C112.843 33.694 112.798 33.5979 112.736 33.5133C112.673 33.4287 112.595 33.3572 112.505 33.303C112.415 33.2487 112.316 33.2128 112.212 33.1973C111.731 33.0915 111.238 33.0532 110.746 33.0835Z" fill="#FEFEFE"/>
<path d="M141.249 27.9671C139.565 27.9671 137.921 27.9671 136.278 27.9671C135.823 27.9671 135.878 27.6712 135.823 27.4299C135.409 25.7548 135.004 24.0706 134.58 22.3318C133.67 23.0692 132.828 23.7747 131.963 24.4621C131.818 24.5958 131.725 24.7763 131.699 24.9719C131.476 25.814 131.244 26.6516 131.034 27.4937C130.952 27.8123 130.843 27.9807 130.452 27.9489C129.186 27.917 127.921 27.9489 126.583 27.9489C126.942 26.5833 127.279 25.2814 127.629 23.9705C128.458 20.8797 129.3 17.798 130.101 14.6981C130.229 14.243 130.411 14.0745 130.898 14.0973C131.967 14.1383 133.037 14.1292 134.107 14.0973C134.562 14.0973 134.589 14.2247 134.485 14.6026C134.098 15.9681 133.738 17.3337 133.374 18.6993C133.347 18.7903 133.333 18.8814 133.306 18.9906C133.606 18.9906 133.715 18.7812 133.866 18.6492L138.663 14.3886C138.743 14.3034 138.839 14.2349 138.945 14.1873C139.051 14.1396 139.166 14.1136 139.282 14.1109C141.003 14.1109 142.728 14.1109 144.449 14.1109C144.529 14.1276 144.606 14.152 144.681 14.1838L140.926 17.2336C140.17 17.8435 139.424 18.4672 138.65 19.0544C138.534 19.1204 138.448 19.2294 138.411 19.358C138.375 19.4866 138.39 19.6243 138.454 19.7417C139.364 22.2953 140.216 24.8581 141.094 27.4163C141.14 27.5984 141.185 27.7668 141.249 27.9671Z" fill="#FEFEFE"/>
<path d="M122.559 40.9356H129.91C129.642 41.9416 129.378 42.8929 129.141 43.8488C129.073 44.1219 128.904 44.1174 128.686 44.1174C125.044 44.1174 121.403 44.1174 117.761 44.1174C117.401 44.1174 117.388 44.0172 117.474 43.7032C118.649 39.3394 119.815 34.971 120.975 30.5981C121.029 30.3887 121.093 30.2248 121.398 30.2294C125.099 30.2294 128.804 30.2294 132.564 30.2294C132.314 31.1717 132.072 32.0502 131.849 32.9606C131.767 33.302 131.517 33.2382 131.285 33.2382C129.246 33.2382 127.188 33.2382 125.167 33.2382C124.712 33.2382 124.521 33.3475 124.461 33.7981C124.393 34.317 123.924 34.9316 124.188 35.2957C124.375 35.5461 125.153 35.3777 125.668 35.3822C127.17 35.3822 128.677 35.3822 130.183 35.3822C130.597 35.3822 130.684 35.4778 130.556 35.8784C130.352 36.5338 130.174 37.2075 130.019 37.8812C129.947 38.2181 129.796 38.3364 129.455 38.3091C127.557 38.3091 125.654 38.3091 123.751 38.3091C123.364 38.3091 123.201 38.4138 123.119 38.8053C122.973 39.4835 122.759 40.1845 122.559 40.9356Z" fill="#FEFEFE"/>
<path d="M133.952 39.2286C134.507 39.2286 135.063 39.2286 135.618 39.2286C135.873 39.2286 135.937 39.2923 135.932 39.5654C135.932 40.7352 136.237 41.2542 137.025 41.4909C137.512 41.637 138.032 41.6349 138.518 41.485C139.005 41.3351 139.435 41.044 139.756 40.6488C139.873 40.5173 139.955 40.359 139.996 40.1879C140.036 40.0169 140.034 39.8385 139.989 39.6686C139.944 39.4986 139.857 39.3425 139.737 39.2141C139.617 39.0857 139.467 38.989 139.301 38.9327C138.509 38.6315 137.696 38.3866 136.87 38.1998C136.379 38.0517 135.9 37.8629 135.441 37.6354C133.661 36.725 133.128 35.2365 133.988 33.4294C134.967 31.3719 136.72 30.4478 138.882 30.1338C140.195 29.9249 141.535 29.9558 142.837 30.2248C144.945 30.68 145.537 32.0456 145.318 34.1304C145.291 34.4035 145.154 34.4354 144.931 34.4354C143.802 34.4354 142.655 34.4354 141.545 34.4354C141.29 34.4354 141.208 34.3671 141.208 34.0985C141.208 33.4612 141.008 32.8968 140.297 32.7329C139.478 32.5463 138.668 32.5645 138.062 33.2792C137.607 33.7981 137.744 34.2897 138.418 34.5082C139.26 34.7859 140.129 34.9634 140.985 35.2183C141.459 35.3542 141.924 35.5183 142.378 35.7099C144.239 36.4974 144.913 37.9358 144.235 39.8431C143.288 42.5105 141.244 43.8351 138.55 44.2402C137.059 44.4798 135.535 44.4054 134.075 44.0218C133.434 43.9009 132.855 43.5637 132.433 43.0665C132.011 42.5693 131.773 41.9424 131.758 41.2906C131.726 40.7554 131.726 40.2189 131.758 39.6837C131.758 39.3606 131.89 39.1921 132.263 39.2286C132.841 39.2559 133.401 39.2286 133.952 39.2286Z" fill="#FEFEFE"/>
<path d="M96.8264 27.9671C98.3149 25.6593 99.7351 23.447 101.155 21.2393C102.575 19.0316 104.028 16.7875 105.448 14.5525C105.516 14.4129 105.624 14.2971 105.759 14.2199C105.894 14.1428 106.049 14.108 106.203 14.1201C107.451 14.1428 108.698 14.1201 109.945 14.1201C110.286 14.1201 110.446 14.161 110.491 14.5753C110.86 18.2578 111.265 21.9358 111.661 25.6137C111.729 26.2601 111.807 26.911 111.889 27.5574C111.925 27.8442 111.889 27.9807 111.529 27.9716C110.282 27.9489 109.035 27.9716 107.787 27.9716C107.478 27.9716 107.373 27.8943 107.382 27.5756C107.382 27.0613 107.341 26.5469 107.346 26.0325C107.346 25.7776 107.259 25.6866 107.005 25.6866C105.596 25.6866 104.19 25.6866 102.785 25.6866C102.707 25.6777 102.628 25.6953 102.561 25.7366C102.494 25.7778 102.443 25.8404 102.416 25.9142C102.381 25.9849 102.342 26.0534 102.298 26.119C101.934 26.7244 101.761 27.5893 101.187 27.8852C100.614 28.181 99.8216 27.958 99.1388 27.9625C98.456 27.9671 97.6822 27.9671 96.8264 27.9671ZM107.059 18.0438H106.945C106.12 19.4853 105.295 20.9298 104.469 22.3773C104.31 22.655 104.469 22.6686 104.678 22.6686H106.158C107.191 22.6686 107.2 22.6686 107.173 21.6399C107.141 20.4245 107.096 19.2365 107.059 18.0438Z" fill="#FEFEFE"/>
<path d="M125.117 19.0452C124.88 19.0452 124.639 19.0452 124.402 19.0452C123.692 19.1135 123.15 19.1226 122.982 18.1349C122.841 17.3064 121.748 16.9377 120.706 17.1607C120.18 17.2712 119.686 17.4978 119.259 17.8238C118.832 18.1499 118.483 18.5672 118.239 19.0452C117.614 20.1944 117.243 21.4641 117.151 22.7687C116.996 24.5303 118.22 25.3634 120.05 24.7989C121.097 24.4757 121.716 23.6837 122.203 22.787C122.27 22.6061 122.397 22.4536 122.563 22.355C122.728 22.2564 122.923 22.2177 123.114 22.2453C124.024 22.2908 124.975 22.2817 125.904 22.2726C126.214 22.2726 126.282 22.3545 126.182 22.6458C125.103 25.6956 122.795 27.9489 119.258 28.1765C118.31 28.2478 117.356 28.205 116.418 28.049C115.381 27.9124 114.432 27.3931 113.758 26.593C113.085 25.7929 112.734 24.7698 112.776 23.7247C112.733 21.1652 113.634 18.6794 115.307 16.742C117.255 14.466 119.827 13.7331 122.722 13.8924C123.117 13.9153 123.509 13.9655 123.897 14.0427C124.414 14.1338 124.908 14.3262 125.351 14.609C125.794 14.8917 126.176 15.2591 126.477 15.6902C126.777 16.1212 126.989 16.6073 127.101 17.1206C127.213 17.6339 127.222 18.1642 127.129 18.6811C127.083 18.9633 126.987 19.0452 126.719 19.0361C126.186 19.0361 125.649 19.0452 125.117 19.0452Z" fill="#FEFEFE"/>
<path d="M104.824 30.2385L101.597 33.6843C100.24 35.1318 98.8838 36.5763 97.5273 38.0178C97.3366 38.2181 97.2044 38.4668 97.1449 38.737C96.6897 40.3802 96.2619 42.0189 95.834 43.6622C95.7566 43.9717 95.6428 44.1174 95.2832 44.1174C94.1543 44.0901 93.0254 44.0901 91.8965 44.1174C91.4823 44.1174 91.3822 44.0354 91.496 43.6167C91.9512 42.0189 92.3426 40.4303 92.7978 38.8098C92.8993 38.4713 92.875 38.1076 92.7295 37.7856C91.7873 35.4596 90.8632 33.129 89.9073 30.8075C89.7162 30.3523 89.7526 30.2112 90.2897 30.2248C91.5369 30.2613 92.7842 30.2521 94.036 30.2248C94.1059 30.2145 94.1772 30.2181 94.2458 30.2355C94.3143 30.2528 94.3788 30.2835 94.4355 30.3258C94.4921 30.3681 94.5399 30.4211 94.576 30.4819C94.6121 30.5427 94.6359 30.61 94.6459 30.68C95.1011 32.0456 95.5563 33.4112 96.0115 34.8496C97.0812 33.6251 98.1691 32.4735 99.1341 31.2081C99.3678 30.8515 99.6969 30.5677 100.084 30.389C100.471 30.2103 100.901 30.144 101.324 30.1975C102.443 30.3113 103.568 30.2385 104.824 30.2385Z" fill="#FEFEFE"/>
<path d="M89.5659 33.7208C87.8498 33.7208 86.2066 33.7208 84.5588 33.7208C84.1036 33.7208 83.9169 33.8209 83.7986 34.2852C82.9929 37.4033 82.1371 40.5077 81.3223 43.6212C81.2176 44.0173 81.0629 44.1538 80.6441 44.1402C79.5744 44.1083 78.5047 44.1037 77.4577 44.1402C76.9115 44.1402 76.9024 43.9899 77.0025 43.5302C77.8401 40.4667 78.6412 37.3851 79.4834 34.3216C79.6199 33.8255 79.538 33.7071 79.0282 33.7253C77.9402 33.7572 76.8478 33.7253 75.7599 33.7253C75.3547 33.7253 75.3047 33.6115 75.3912 33.2701C75.6461 32.3597 75.8782 31.4812 76.1058 30.5799C76.1741 30.3205 76.3061 30.2476 76.561 30.2476C80.2845 30.2476 84.0095 30.2476 87.736 30.2476C87.9136 30.2476 88.0865 30.2476 88.1912 30.4479C88.6373 31.5085 89.088 32.5828 89.5659 33.7208Z" fill="#FEFEFE"/>
<path d="M90.3992 24.5167H97.4684C97.1406 25.2541 96.6035 25.8049 96.3122 26.4786C95.7796 27.7167 94.9466 28.0718 93.581 28.008C90.9727 27.876 88.3508 27.9671 85.7335 27.9671H85.078C85.433 26.6242 85.7699 25.3315 86.1158 24.0387C86.9352 20.9389 87.7955 17.8162 88.6148 14.7027C88.7241 14.2794 88.888 14.0927 89.3659 14.1155C90.3946 14.1565 91.4279 14.1565 92.4567 14.1155C93.0029 14.0927 93.1122 14.2065 92.9619 14.7573C92.1016 17.8572 91.2823 20.9707 90.4447 24.0797C90.3849 24.2172 90.369 24.3698 90.3992 24.5167Z" fill="#FEFEFE"/>
<path d="M26.1802 10.3784C26.1335 10.4852 26.0647 10.581 25.9785 10.6594C25.8922 10.7378 25.7903 10.7972 25.6795 10.8336C25.7602 10.6156 25.9045 10.4269 26.0937 10.2919L26.1802 10.3784Z" fill="#F18F1E"/>
<path d="M50.6471 41.6502L50.5925 41.7367C50.5289 41.692 50.4721 41.6384 50.424 41.5774C50.3876 41.5182 50.424 41.4772 50.506 41.4909C50.545 41.4954 50.581 41.5141 50.607 41.5435C50.6331 41.5729 50.6473 41.6109 50.6471 41.6502Z" fill="#FEFEFE"/>
<path d="M25.6803 10.829C25.6803 10.9251 25.6483 10.9663 25.5521 10.9434L25.6803 10.8336V10.829Z" fill="#F18F1E"/>
<path d="M25.5521 10.9246L25.5246 11.0024C25.5246 11.0024 25.5246 10.9795 25.5246 10.9704L25.5612 10.9292L25.5521 10.9246Z" fill="#F18F1E"/>
<path d="M25.3838 11.2668L25.3745 11.2342L25.4025 11.2388L25.3838 11.2668Z" fill="#F18F1E"/>
<path d="M40.2001 29.9654C40.1342 30.2926 39.9923 30.5996 39.7857 30.8618C39.5791 31.1239 39.3137 31.3337 39.011 31.4742C38.7083 31.6147 38.3767 31.682 38.0432 31.6705C37.7096 31.6591 37.3835 31.5693 37.0911 31.4083C35.3295 30.5526 34.4282 27.9489 35.2703 26.1873C35.447 25.7602 35.7648 25.4066 36.1707 25.1854C36.5766 24.9642 37.046 24.8889 37.5007 24.9719C35.68 26.1235 35.4433 28.3221 36.9864 29.9199C37.9833 30.9122 38.971 30.9532 40.2001 29.9654Z" fill="#242021"/>
<path d="M39.6401 22.5321L39.5217 22.705C39.4939 22.6658 39.4789 22.6189 39.4789 22.5707C39.4789 22.5226 39.4939 22.4757 39.5217 22.4365L39.6401 22.5321Z" fill="#242021"/>
<path d="M42.6724 32.0916L42.6312 32.1328C42.6153 32.1088 42.603 32.0825 42.5946 32.055C42.5946 32.055 42.5946 32.0275 42.6312 32.0138L42.6724 32.0916Z" fill="#242021"/>
<path d="M77.8901 22.2271C78.3933 22.1964 78.8983 22.2316 79.3923 22.3318C79.5209 22.3511 79.6436 22.3994 79.7509 22.473C79.8582 22.5466 79.9474 22.6436 80.0118 22.7566C80.0762 22.8697 80.1141 22.9959 80.1227 23.1257C80.1313 23.2555 80.1104 23.3856 80.0614 23.5062C79.9921 23.8506 79.8195 24.1658 79.5666 24.4098C79.3137 24.6537 78.9925 24.8149 78.6458 24.8718C77.7232 24.9841 76.7925 25.0146 75.8645 24.9628C75.6415 24.9628 75.5869 24.8581 75.6369 24.6669C75.8327 23.9432 76.0375 23.2194 76.2196 22.4956C76.2788 22.268 76.4199 22.2316 76.6156 22.2316L77.8901 22.2271Z" fill="#242021"/>
<path d="M77.0208 19.5187C77.2347 18.7403 77.4441 18.0074 77.6262 17.2427C77.6293 17.2 77.6414 17.1583 77.6617 17.1206C77.682 17.0828 77.71 17.0497 77.7439 17.0235C77.7779 16.9973 77.8169 16.9786 77.8586 16.9685C77.9003 16.9584 77.9436 16.9572 77.9858 16.965C78.6959 16.965 79.4105 16.965 80.1161 16.9969C80.8216 17.0288 81.1403 17.5204 80.9309 18.2396C80.8403 18.5977 80.6324 18.9151 80.3403 19.1412C80.0482 19.3672 79.6888 19.4889 79.3195 19.4868C78.573 19.5733 77.831 19.5187 77.0208 19.5187Z" fill="#242021"/>
<path d="M110.746 33.0835C111.238 33.0546 111.731 33.0945 112.212 33.2018C112.316 33.2174 112.415 33.2533 112.505 33.3075C112.595 33.3618 112.674 33.4332 112.736 33.5178C112.798 33.6024 112.843 33.6985 112.868 33.8005C112.893 33.9025 112.897 34.0084 112.881 34.1122C112.858 34.4389 112.742 34.7522 112.547 35.0151C112.352 35.2781 112.086 35.4797 111.779 35.5961C110.842 35.9193 109.863 35.8283 108.898 35.8374C108.648 35.8374 108.661 35.7008 108.707 35.5278C108.903 34.8041 109.103 34.0803 109.285 33.352C109.34 33.1335 109.467 33.0789 109.672 33.088C109.986 33.0926 110.305 33.0835 110.746 33.0835Z" fill="#242021"/>
<path d="M107.059 18.0438C107.095 19.2365 107.141 20.4245 107.173 21.6171C107.2 22.6459 107.173 22.6459 106.158 22.6459H104.688C104.478 22.6459 104.319 22.6459 104.478 22.3545C105.307 20.9101 106.132 19.4656 106.954 18.0211L107.059 18.0438Z" fill="#242021"/>
</svg>
